<?xml version="1.0" encoding="UTF-8" standalone="no"?>
<!DOCTYPE svg PUBLIC "-//W3C//DTD SVG 1.1//EN"
 "http://www.w3.org/Graphics/SVG/1.1/DTD/svg11.dtd">
<!-- Generated by graphviz version 2.38.0 (20140413.2041)
 -->
<!-- Title: G Pages: 1 -->
<svg width="801pt" height="120pt"
 viewBox="0.00 0.00 801.00 120.00" xmlns="http://www.w3.org/2000/svg" xmlns:xlink="http://www.w3.org/1999/xlink">
<g id="graph0" class="graph" transform="scale(1 1) rotate(0) translate(4 116)">
<title>G</title>
<polygon fill="white" stroke="none" points="-4,4 -4,-116 797,-116 797,4 -4,4"/>
<!-- c0 -->
<g id="node1" class="node"><title>c0</title>
<g id="a_node1"><a xlink:href="./User.html" xlink:title="&lt;TABLE&gt;">
</a>
</g>
<g id="a_node1_8"><a xlink:href="./User.html" xlink:title="klm.pstryk.site.User" target="_parent">
<polygon fill="lemonChiffon" stroke="none" points="9.5,-82.5 9.5,-101.5 44.5,-101.5 44.5,-82.5 9.5,-82.5"/>
<polygon fill="none" stroke="black" points="10,-82 10,-101 45,-101 45,-82 10,-82"/>
<text text-anchor="start" x="14" y="-89" font-family="arial" font-size="10.00"> User </text>
</a>
</g>
<g><a xlink:href="./User.html" xlink:title="&lt;TABLE&gt;">
</a>
</g>
</g>
<!-- c1 -->
<g id="node2" class="node"><title>c1</title>
<g id="a_node2"><a xlink:href="./UserForm.html" xlink:title="&lt;TABLE&gt;">
</a>
</g>
<g id="a_node2_9"><a xlink:href="./UserForm.html" xlink:title="klm.pstryk.site.UserForm" target="_parent">
<polygon fill="lemonChiffon" stroke="none" points="80.5,-82.5 80.5,-101.5 137.5,-101.5 137.5,-82.5 80.5,-82.5"/>
<polygon fill="none" stroke="black" points="81,-82 81,-101 138,-101 138,-82 81,-82"/>
<text text-anchor="start" x="85" y="-89" font-family="arial" font-size="10.00"> UserForm </text>
</a>
</g>
<g><a xlink:href="./UserForm.html" xlink:title="&lt;TABLE&gt;">
</a>
</g>
</g>
<!-- c2 -->
<g id="node3" class="node"><title>c2</title>
<g id="a_node3"><a xlink:href="./UserManagementController.html" xlink:title="&lt;TABLE&gt;">
</a>
</g>
<g id="a_node3_10"><a xlink:href="./UserManagementController.html" xlink:title="klm.pstryk.site.UserManagementController" target="_parent">
<polygon fill="lemonChiffon" stroke="none" points="172,-82.5 172,-101.5 304,-101.5 304,-82.5 172,-82.5"/>
<polygon fill="none" stroke="black" points="172,-82 172,-101 304,-101 304,-82 172,-82"/>
<text text-anchor="start" x="176" y="-89" font-family="arial" font-size="10.00"> UserManagementController </text>
</a>
</g>
<g><a xlink:href="./UserManagementController.html" xlink:title="&lt;TABLE&gt;">
</a>
</g>
</g>
<!-- c9 -->
<g id="node4" class="node"><title>c9</title>
<g id="a_node4"><a xlink:href="./Bootstrap.html" xlink:title="&lt;TABLE&gt;">
</a>
</g>
<g id="a_node4_11"><a xlink:href="./Bootstrap.html" xlink:title="klm.pstryk.config.Bootstrap" target="_parent">
<polygon fill="lemonChiffon" stroke="none" points="370.5,-8.5 370.5,-27.5 427.5,-27.5 427.5,-8.5 370.5,-8.5"/>
<polygon fill="none" stroke="black" points="371,-8 371,-27 428,-27 428,-8 371,-8"/>
<text text-anchor="start" x="375" y="-15" font-family="arial" font-size="10.00"> Bootstrap </text>
</a>
</g>
<g><a xlink:href="./Bootstrap.html" xlink:title="&lt;TABLE&gt;">
</a>
</g>
</g>
<!-- c26 -->
<g id="node5" class="node"><title>c26</title>
<g id="a_node5"><a xlink:href="http://docs.oracle.com/javase/7/docs/api/org/springframework/web/WebApplicationInitializer.html" xlink:title="&lt;TABLE&gt;">
</a>
</g>
<g id="a_node5_12"><a xlink:href="http://docs.oracle.com/javase/7/docs/api/org/springframework/web/WebApplicationInitializer.html" xlink:title="org.springframework.web.WebApplicationInitializer" target="_parent">
<polygon fill="none" stroke="black" points="339,-76 339,-108 460,-108 460,-76 339,-76"/>
<text text-anchor="start" x="372.5" y="-96" font-family="arial" font-size="10.00"> «interface» </text>
<text text-anchor="start" x="343" y="-83" font-family="arial" font-size="10.00"> WebApplicationInitializer </text>
</a>
</g>
<g><a xlink:href="http://docs.oracle.com/javase/7/docs/api/org/springframework/web/WebApplicationInitializer.html" xlink:title="&lt;TABLE&gt;">
</a>
</g>
</g>
<!-- c26&#45;&gt;c9 -->
<g id="edge1" class="edge"><title>c26:p&#45;&gt;c9:p</title>
<path fill="none" stroke="black" stroke-dasharray="5,2" d="M399,-65.3842C399,-52.3044 399,-37.2245 399,-27.9008"/>
<polygon fill="none" stroke="black" points="395.5,-65.7306 399,-75.7307 402.5,-65.7307 395.5,-65.7306"/>
</g>
<!-- c10 -->
<g id="node6" class="node"><title>c10</title>
<g id="a_node6"><a xlink:href="./RootContextConfiguration.html" xlink:title="&lt;TABLE&gt;">
</a>
</g>
<g id="a_node6_13"><a xlink:href="./RootContextConfiguration.html" xlink:title="klm.pstryk.config.RootContextConfiguration" target="_parent">
<polygon fill="lemonChiffon" stroke="none" points="493.5,-82.5 493.5,-101.5 618.5,-101.5 618.5,-82.5 493.5,-82.5"/>
<polygon fill="none" stroke="black" points="494,-82 494,-101 619,-101 619,-82 494,-82"/>
<text text-anchor="start" x="498" y="-89" font-family="arial" font-size="10.00"> RootContextConfiguration </text>
</a>
</g>
<g><a xlink:href="./RootContextConfiguration.html" xlink:title="&lt;TABLE&gt;">
</a>
</g>
</g>
<!-- c11 -->
<g id="node7" class="node"><title>c11</title>
<g id="a_node7"><a xlink:href="./ServletContextConfiguration.html" xlink:title="&lt;TABLE&gt;">
</a>
</g>
<g id="a_node7_14"><a xlink:href="./ServletContextConfiguration.html" xlink:title="klm.pstryk.config.ServletContextConfiguration" target="_parent">
<polygon fill="lemonChiffon" stroke="none" points="651,-8.5 651,-27.5 785,-27.5 785,-8.5 651,-8.5"/>
<polygon fill="none" stroke="black" points="651,-8 651,-27 785,-27 785,-8 651,-8"/>
<text text-anchor="start" x="655" y="-15" font-family="arial" font-size="10.00"> ServletContextConfiguration </text>
</a>
</g>
<g><a xlink:href="./ServletContextConfiguration.html" xlink:title="&lt;TABLE&gt;">
</a>
</g>
</g>
<!-- c40 -->
<g id="node8" class="node"><title>c40</title>
<g id="a_node8"><a xlink:href="http://docs.oracle.com/javase/7/docs/api/org/springframework/web/servlet/config/annotation/WebMvcConfigurerAdapter.html" xlink:title="&lt;TABLE&gt;">
</a>
</g>
<g id="a_node8_15"><a xlink:href="http://docs.oracle.com/javase/7/docs/api/org/springframework/web/servlet/config/annotation/WebMvcConfigurerAdapter.html" xlink:title="org.springframework.web.servlet.config.annotation.WebMvcConfigurerAdapter" target="_parent">
<polygon fill="none" stroke="black" points="653,-82 653,-101 784,-101 784,-82 653,-82"/>
<text text-anchor="start" x="657" y="-89" font-family="arial italic" font-size="10.00"> WebMvcConfigurerAdapter </text>
</a>
</g>
<g><a xlink:href="http://docs.oracle.com/javase/7/docs/api/org/springframework/web/servlet/config/annotation/WebMvcConfigurerAdapter.html" xlink:title="&lt;TABLE&gt;">
</a>
</g>
</g>
<!-- c40&#45;&gt;c11 -->
<g id="edge2" class="edge"><title>c40:p&#45;&gt;c11:p</title>
<path fill="none" stroke="black" d="M718,-72.1562C718,-57.7123 718,-38.4594 718,-27.531"/>
<polygon fill="none" stroke="black" points="714.5,-72.4579 718,-82.4579 721.5,-72.4579 714.5,-72.4579"/>
</g>
</g>
</svg>
